# xmcd
#
# Track frame offsets:
#	150
#	17813
#	39210
#	57259
#	75326
#	87824
#	103460
#	120030
#	139443
#	154131
#	170902
#	187225
#
# Disc length: 2692 seconds
#
# Revision: 7
# Processed by: cddbd v1.5.2PL0 Copyright (c) Steve Scherf et al.
# Submitted via: EZCDAudioConverter 7.1.0.1
#
DISCID=9b0a820c
DTITLE=CHITÃOZINHO and  XORORÓ - AQUI O SISTEMA É BRUTO [CD 60249822607) UNIVERS
DTITLE=AL MUSIC
DYEAR=2004
DGENRE=sertanejo
TTITLE0=SISTEMA BRUTO (BY GILMAR SINISTRO)
TTITLE1=SINÔNIMOS [PARTICIPAÇÃO ESPECIAL ZÉ RAMALHO] (BY GILMAR SINISTRO)
TTITLE2=ESSÊNCIA DO PRAZER (BY GILMAR SINISTRO)
TTITLE3=SEM DESTINO (BY GILMAR SINISTRO)
TTITLE4=SE (BY GILMAR SINISTRO)
TTITLE5=SÓ SEI QUE DÓI (BY GILMAR SINISTRO)
TTITLE6=QUERO VOCÊ (BY GILMAR SINISTRO)
TTITLE7=MULHERES (BY GILMAR SINISTRO)
TTITLE8=AMOR INFINITO (BY GILMAR SINISTRO)
TTITLE9=DE VEZ EM QUANDO VEM (BY GILMAR SINISTRO)
TTITLE10=TRADIÇÃO GAÚCHA [PARTICIPAÇÃO ESPECIAL GRUPO TRADIÇÃO] (BY GILMAR SIN
TTITLE10=ISTRO)
TTITLE11=ZÉ BENTO (BY GILMAR SINISTRO)
EXTD=
EXTT0=
EXTT1=
EXTT2=
EXTT3=
EXTT4=
EXTT5=
EXTT6=
EXTT7=
EXTT8=
EXTT9=
EXTT10=
EXTT11=
PLAYORDER=
